<mxfile host="65bd71144e">
    <diagram id="IGOtHctLbJ6g6cUza5IP" name="PÃ¡gina-1">
        <mxGraphModel dx="1551" dy="1681" grid="1" gridSize="10" guides="1" tooltips="1" connect="1" arrows="1" fold="1" page="0" pageScale="1" pageWidth="827" pageHeight="1169" background="none" math="0" shadow="0">
            <root>
                <mxCell id="0"/>
                <mxCell id="1" parent="0"/>
                <mxCell id="2" value="Users" style="whiteSpace=wrap;html=1;" vertex="1" parent="1">
                    <mxGeometry x="-120" y="-10" width="120" height="60" as="geometry"/>
                </mxCell>
                <mxCell id="4" value="Roles" style="whiteSpace=wrap;html=1;" vertex="1" parent="1">
                    <mxGeometry x="140" y="-250" width="120" height="60" as="geometry"/>
                </mxCell>
                <mxCell id="6" value="Perfil" style="whiteSpace=wrap;html=1;" vertex="1" parent="1">
                    <mxGeometry x="280" y="-10" width="120" height="60" as="geometry"/>
                </mxCell>
                <mxCell id="8" value="id" style="ellipse;whiteSpace=wrap;html=1;" vertex="1" parent="1">
                    <mxGeometry x="10" y="-340" width="120" height="60" as="geometry"/>
                </mxCell>
                <mxCell id="9" value="editor" style="ellipse;whiteSpace=wrap;html=1;" vertex="1" parent="1">
                    <mxGeometry x="140" y="-340" width="120" height="60" as="geometry"/>
                </mxCell>
                <mxCell id="10" value="id" style="ellipse;whiteSpace=wrap;html=1;" vertex="1" parent="1">
                    <mxGeometry x="280" y="100" width="120" height="60" as="geometry"/>
                </mxCell>
                <mxCell id="11" value="biografia" style="ellipse;whiteSpace=wrap;html=1;" vertex="1" parent="1">
                    <mxGeometry x="280" y="170" width="120" height="60" as="geometry"/>
                </mxCell>
                <mxCell id="12" value="titulo" style="ellipse;whiteSpace=wrap;html=1;" vertex="1" parent="1">
                    <mxGeometry x="280" y="240" width="120" height="60" as="geometry"/>
                </mxCell>
                <mxCell id="13" value="website" style="ellipse;whiteSpace=wrap;html=1;" vertex="1" parent="1">
                    <mxGeometry x="280" y="310" width="120" height="60" as="geometry"/>
                </mxCell>
                <mxCell id="14" value="Posts" style="whiteSpace=wrap;html=1;" vertex="1" parent="1">
                    <mxGeometry x="680" y="-10" width="120" height="60" as="geometry"/>
                </mxCell>
                <mxCell id="15" value="id" style="ellipse;whiteSpace=wrap;html=1;" vertex="1" parent="1">
                    <mxGeometry x="680" y="100" width="120" height="60" as="geometry"/>
                </mxCell>
                <mxCell id="17" value="titulo" style="ellipse;whiteSpace=wrap;html=1;" vertex="1" parent="1">
                    <mxGeometry x="680" y="170" width="120" height="60" as="geometry"/>
                </mxCell>
                <mxCell id="18" value="body" style="ellipse;whiteSpace=wrap;html=1;" vertex="1" parent="1">
                    <mxGeometry x="680" y="240" width="120" height="60" as="geometry"/>
                </mxCell>
                <mxCell id="19" value="categoria" style="ellipse;whiteSpace=wrap;html=1;" vertex="1" parent="1">
                    <mxGeometry x="680" y="310" width="120" height="60" as="geometry"/>
                </mxCell>
                <mxCell id="20" value="tags" style="ellipse;whiteSpace=wrap;html=1;" vertex="1" parent="1">
                    <mxGeometry x="680" y="380" width="120" height="60" as="geometry"/>
                </mxCell>
                <mxCell id="21" value="Comentarios" style="whiteSpace=wrap;html=1;" vertex="1" parent="1">
                    <mxGeometry x="1080" y="-10" width="120" height="60" as="geometry"/>
                </mxCell>
                <mxCell id="22" value="id" style="ellipse;whiteSpace=wrap;html=1;" vertex="1" parent="1">
                    <mxGeometry x="1080" y="100" width="120" height="60" as="geometry"/>
                </mxCell>
                <mxCell id="23" value="mensaje" style="ellipse;whiteSpace=wrap;html=1;" vertex="1" parent="1">
                    <mxGeometry x="1080" y="170" width="120" height="60" as="geometry"/>
                </mxCell>
                <mxCell id="24" value="user_id" style="ellipse;whiteSpace=wrap;html=1;" vertex="1" parent="1">
                    <mxGeometry x="1080" y="240" width="120" height="60" as="geometry"/>
                </mxCell>
                <mxCell id="25" value="player" style="ellipse;whiteSpace=wrap;html=1;" vertex="1" parent="1">
                    <mxGeometry x="270" y="-340" width="120" height="60" as="geometry"/>
                </mxCell>
                <mxCell id="26" value="creador_id" style="ellipse;whiteSpace=wrap;html=1;" vertex="1" parent="1">
                    <mxGeometry x="680" y="450" width="120" height="60" as="geometry"/>
                </mxCell>
                <mxCell id="27" value="rol_id" style="ellipse;whiteSpace=wrap;html=1;" vertex="1" parent="1">
                    <mxGeometry x="280" y="380" width="120" height="60" as="geometry"/>
                </mxCell>
                <mxCell id="28" value="id" style="ellipse;whiteSpace=wrap;html=1;" vertex="1" parent="1">
                    <mxGeometry x="-120" y="100" width="120" height="60" as="geometry"/>
                </mxCell>
                <mxCell id="29" value="nombre" style="ellipse;whiteSpace=wrap;html=1;" vertex="1" parent="1">
                    <mxGeometry x="-120" y="170" width="120" height="60" as="geometry"/>
                </mxCell>
                <mxCell id="30" value="email" style="ellipse;whiteSpace=wrap;html=1;" vertex="1" parent="1">
                    <mxGeometry x="-120" y="240" width="120" height="60" as="geometry"/>
                </mxCell>
                <mxCell id="31" value="direccion" style="ellipse;whiteSpace=wrap;html=1;" vertex="1" parent="1">
                    <mxGeometry x="-120" y="310" width="120" height="60" as="geometry"/>
                </mxCell>
                <mxCell id="32" value="Video" style="whiteSpace=wrap;html=1;" vertex="1" parent="1">
                    <mxGeometry x="1480" y="-10" width="120" height="60" as="geometry"/>
                </mxCell>
                <mxCell id="33" value="id" style="ellipse;whiteSpace=wrap;html=1;" vertex="1" parent="1">
                    <mxGeometry x="1480" y="100" width="120" height="60" as="geometry"/>
                </mxCell>
                <mxCell id="34" value="url" style="ellipse;whiteSpace=wrap;html=1;" vertex="1" parent="1">
                    <mxGeometry x="1480" y="170" width="120" height="60" as="geometry"/>
                </mxCell>
                <mxCell id="37" value="descripcion" style="ellipse;whiteSpace=wrap;html=1;" vertex="1" parent="1">
                    <mxGeometry x="1480" y="240" width="120" height="60" as="geometry"/>
                </mxCell>
                <mxCell id="38" value="tags" style="ellipse;whiteSpace=wrap;html=1;" vertex="1" parent="1">
                    <mxGeometry x="1480" y="310" width="120" height="60" as="geometry"/>
                </mxCell>
                <mxCell id="39" value="tags" style="whiteSpace=wrap;html=1;" vertex="1" parent="1">
                    <mxGeometry x="680" y="-260" width="120" height="60" as="geometry"/>
                </mxCell>
                <mxCell id="40" value="id" style="ellipse;whiteSpace=wrap;html=1;" vertex="1" parent="1">
                    <mxGeometry x="620" y="-340" width="120" height="60" as="geometry"/>
                </mxCell>
                <mxCell id="41" value="tag" style="ellipse;whiteSpace=wrap;html=1;" vertex="1" parent="1">
                    <mxGeometry x="740" y="-340" width="120" height="60" as="geometry"/>
                </mxCell>
                <mxCell id="42" value="Pictures" style="whiteSpace=wrap;html=1;" vertex="1" parent="1">
                    <mxGeometry x="1080" y="-260" width="120" height="60" as="geometry"/>
                </mxCell>
                <mxCell id="43" value="id" style="ellipse;whiteSpace=wrap;html=1;" vertex="1" parent="1">
                    <mxGeometry x="1000" y="-410" width="120" height="60" as="geometry"/>
                </mxCell>
                <mxCell id="44" value="profile_picture" style="ellipse;whiteSpace=wrap;html=1;" vertex="1" parent="1">
                    <mxGeometry x="1000" y="-340" width="120" height="60" as="geometry"/>
                </mxCell>
                <mxCell id="45" value="cover_picture" style="ellipse;whiteSpace=wrap;html=1;" vertex="1" parent="1">
                    <mxGeometry x="1120" y="-340" width="120" height="60" as="geometry"/>
                </mxCell>
                <mxCell id="46" value="user_id" style="ellipse;whiteSpace=wrap;html=1;" vertex="1" parent="1">
                    <mxGeometry x="1120" y="-410" width="120" height="60" as="geometry"/>
                </mxCell>
            </root>
        </mxGraphModel>
    </diagram>
</mxfile>